<?xml version="1.0" encoding="utf-8"?>
<!-- Designed by Vexels.com - 2016 All Rights Reserved - https://vexels.com/terms-and-conditions/  -->

<svg version="1.0" id="Capa_1" xmlns="http://www.w3.org/2000/svg" xmlns:xlink="http://www.w3.org/1999/xlink" x="0px" y="0px"
	 width="1200px" height="1200px" viewBox="0 0 1200 1200" enable-background="new 0 0 1200 1200" xml:space="preserve">
<g>
	<path d="M600.079,1184.792c322.442,0,584.711-262.428,584.711-584.87S922.522,15.208,600.079,15.208S15.209,277.479,15.209,599.921
		S277.637,1184.792,600.079,1184.792z M231.301,754.316c3.98-8.034,8.082-16.34,310.102-180.928
		c0.454-4.123,1.525-8.224,3.168-12.169c6.699-15.83,22.125-27.319,41.219-30.763c5.938-1.062,10.442-6.664,13.21-11.182
		c9.272-15.21,10.344-35.795,7.579-44.806c-2.218-7.234-8.559-14.267-16.544-18.392c-9.871-5.077-21.719-5.768-33.423-1.918
		c-26.416,8.748-27.155,40.596-27.178,41.944l-0.168,12.075l-48.655-0.143v-12.169c0-2.779,0.69-68.193,60.672-88.051
		c24.219-8.023,49.466-6.282,71.135,4.876c19.834,10.238,34.686,27.51,40.789,47.415c7.721,24.983,2.576,59.764-12.517,84.558
		c-9.487,15.615-22.172,26.341-37.021,31.455c14.207,6.319,33.231,14.673,52.824,23.292
		c317.352,139.424,317.352,143.966,317.352,165.765v16.296l-16.38,7.318c-6.818,2.648-21.408,8.261-228.783,8.261
		c-41.003,0-87.587-0.215-139.653-0.655c-343.165-2.885-346.12-6.128-353.963-14.794l-11.181-12.325L231.301,754.316z"/>
	<path d="M865.471,746.783c-68.798-32.482-172.52-78.037-228.21-102.498c-36.691-16.126-56.93-25.03-68.325-30.286
		c-78.977,43.055-173.023,95.023-234.601,130.149C467.285,747.154,733.403,749.347,865.471,746.783z"/>
</g>
</svg>
